<?xml version="1.0" standalone="no"?>
<!DOCTYPE svg PUBLIC "-//W3C//DTD SVG 20010904//EN"
 "http://www.w3.org/TR/2001/REC-SVG-20010904/DTD/svg10.dtd">
<svg version="1.0" xmlns="http://www.w3.org/2000/svg"
 width="78.000000pt" height="95.000000pt" viewBox="0 0 78.000000 95.000000"
 preserveAspectRatio="xMidYMid meet">

<g transform="translate(0.000000,95.000000) scale(0.100000,-0.100000)"
fill="#000000" stroke="none">
<path d="M208 862 l-208 -77 0 -315 0 -315 210 -77 210 -78 116 73 c64 39 120
81 124 92 4 11 10 41 13 68 l7 47 -51 -25 -50 -26 -97 21 c-53 11 -107 22
-119 25 -23 5 -23 7 -23 195 0 188 0 190 23 195 12 3 66 14 120 25 l98 20 49
-25 50 -25 -7 47 c-3 27 -9 57 -13 68 -6 15 -229 167 -243 165 -1 -1 -95 -35
-209 -78z"/>
<path d="M560 563 c0 -5 21 -9 45 -9 25 -1 49 -4 52 -8 4 -3 2 -42 -3 -86 l-9
-80 25 0 25 0 -9 80 c-5 44 -7 83 -3 86 3 4 27 7 52 8 24 0 45 4 45 9 0 4 -49
7 -110 7 -60 0 -110 -3 -110 -7z"/>
</g>
</svg>
